<svg xmlns="http://www.w3.org/2000/svg" version="1.1" xmlns:xlink="http://www.w3.org/1999/xlink" xmlns:svgjs="http://svgjs.dev/svgjs" width="1000" height="1000" viewBox="0 0 1000 1000"><rect width="1000" height="1000" fill="#ffffff"></rect><g transform="matrix(0.7,0,0,0.7,150,106.25)"><svg viewBox="0 0 320 360" data-background-color="#ffffff" preserveAspectRatio="xMidYMid meet" height="1125" width="1000" xmlns="http://www.w3.org/2000/svg" xmlns:xlink="http://www.w3.org/1999/xlink"><g id="tight-bounds" transform="matrix(1,0,0,1,0,0)"><svg viewBox="0 0 320 360" height="360" width="320"><g><svg></svg></g><g><svg viewBox="0 0 320 360" height="360" width="320"><g><path xmlns="http://www.w3.org/2000/svg" d="M320 187.111c0-45.764-20.238-86.866-52.203-114.908-28.043-31.964-69.145-52.203-114.908-52.203-84.302 0-152.889 68.587-152.889 152.889 0 45.753 20.231 86.848 52.185 114.891 28.043 31.975 69.152 52.22 114.926 52.22 0.299 0 0.59-0.021 0.889-0.021 0.299 0 0.59 0.021 0.889 0.021 83.456 0 151.111-67.655 151.111-151.111 0-0.299-0.021-0.59-0.021-0.889 0-0.299 0.021-0.59 0.021-0.889zM59.833 263.097c-15.093-21.255-24.071-47.143-24.256-75.097 0.48-72.928 59.492-131.943 132.423-132.423 27.954 0.185 53.845 9.163 75.097 24.256 24.366 23.627 39.57 56.64 39.57 93.056 0 71.559-58.219 129.778-129.778 129.778-36.416 0-69.429-15.204-93.056-39.57zM3.556 172.889c0-82.343 66.99-149.333 149.333-149.333 35.051 0 67.292 12.167 92.8 32.462-22.98-13.824-49.863-21.796-78.578-21.796-84.302 0-152.889 68.587-152.889 152.889 0 28.708 7.968 55.584 21.785 78.56-20.288-25.5-32.452-57.739-32.451-92.782zM167.111 318.667c-35.84 0-68.363-14.418-92.107-37.743 21.952 15.89 48.864 25.298 77.885 25.298 73.522 0 133.333-59.812 133.333-133.333 0-29.02-9.408-55.932-25.298-77.885 23.324 23.744 37.742 56.267 37.743 92.107 0 72.54-59.015 131.556-131.556 131.556z" fill="#0080ff" fill-rule="nonzero" stroke="none" stroke-width="1" stroke-linecap="butt" stroke-linejoin="miter" stroke-miterlimit="10" stroke-dasharray="" stroke-dashoffset="0" font-family="none" font-weight="none" font-size="none" text-anchor="none" style="mix-blend-mode: normal" data-fill-palette-color="tertiary"></path></g><g transform="matrix(1,0,0,1,64,99)"><svg viewBox="0 0 192 162" height="162" width="192"><g><svg viewBox="0 0 192 162" height="162" width="192"><g><svg viewBox="0 0 192 162" height="162" width="192"><g><svg viewBox="0 0 192 162" height="162" width="192"><g><svg viewBox="0 0 192 162" height="162" width="192"><g transform="matrix(1,0,0,1,50.74516600406096,42.81623381592643)"><svg viewBox="0 0 90.50966799187808 76.36753236814714" height="76.36753236814714" width="90.50966799187808"><g><circle r="38" cx="45.25483399593904" cy="38.18376618407357" fill="#0080ff" data-fill-palette-color="accent"></circle></g></svg></g><path d="M35.289 54.728L31.987 64.367 16.752 59.148 20.157 49.208 22.285 50.389 20.278 56.248 24.322 57.633 26.074 52.517 28.061 53.618 26.438 58.358 30.98 59.914 33.161 53.547ZM41.864 44.254L38.146 43.167 35.242 47.8 37.846 50.664 36.12 53.418 25.199 40.519 27.685 36.552 44.045 40.775ZM33.667 46.12L35.937 42.498 30.661 40.939 28.315 40.114 28.199 40.299 29.969 42.043ZM45.306 31.141L43.876 32.593 48.117 36.772 45.389 39.541 33.918 28.236 37.98 24.116C38.715 23.37 39.435 22.8 40.139 22.406 40.849 22.016 41.522 21.772 42.159 21.674 42.795 21.576 43.384 21.611 43.924 21.781 44.464 21.95 44.932 22.23 45.329 22.621V22.621C45.692 22.979 45.967 23.385 46.153 23.838 46.339 24.291 46.462 24.757 46.522 25.234 46.581 25.712 46.592 26.192 46.553 26.675 46.515 27.158 46.455 27.606 46.373 28.019V28.019L54.795 29.996 51.634 33.204ZM38.353 27.15L42.283 31.022 44.23 29.047C44.298 28.826 44.334 28.582 44.337 28.315 44.335 28.053 44.298 27.788 44.226 27.522 44.158 27.25 44.051 26.982 43.903 26.716 43.756 26.45 43.56 26.196 43.314 25.954V25.954C43.041 25.684 42.749 25.475 42.438 25.327 42.119 25.18 41.79 25.102 41.452 25.096 41.115 25.098 40.778 25.175 40.442 25.328 40.101 25.476 39.77 25.712 39.449 26.038V26.038ZM55.175 13.854L62.526 25.425 59.245 27.51 51.894 15.939 47.673 18.62 46.749 16.369 58.153 9.124 59.076 11.375ZM72.274 20.829L68.616 22.143 63.171 6.987 66.829 5.673 69.054 11.866 75.331 9.611 73.106 3.417 76.755 2.106 82.2 17.262 78.552 18.573 76.142 11.865 69.864 14.121ZM93.984 14.195V14.195C94.329 14.183 94.655 14.132 94.964 14.042 95.279 13.958 95.553 13.832 95.786 13.665 96.026 13.491 96.214 13.279 96.351 13.029 96.488 12.772 96.551 12.472 96.539 12.127V12.127C96.525 11.716 96.41 11.372 96.195 11.095 95.98 10.817 95.7 10.575 95.354 10.368 95.003 10.168 94.608 9.982 94.171 9.812 93.735 9.648 93.288 9.477 92.831 9.301 92.374 9.124 91.926 8.924 91.487 8.7 91.055 8.477 90.661 8.202 90.305 7.876 89.956 7.55 89.67 7.158 89.449 6.702 89.228 6.245 89.106 5.692 89.083 5.043V5.043C89.058 4.308 89.177 3.638 89.442 3.032 89.706 2.426 90.096 1.902 90.611 1.459 91.12 1.024 91.745 0.681 92.485 0.43 93.219 0.179 94.043 0.038 94.957 0.007V0.007C95.209-0.002 95.501-0.002 95.833 0.006 96.164 0.008 96.523 0.026 96.909 0.059 97.288 0.092 97.681 0.138 98.087 0.197 98.494 0.256 98.891 0.332 99.279 0.425V0.425L98.812 3.027 98.616 3.123C98.266 2.983 97.921 2.865 97.579 2.771 97.231 2.677 96.897 2.599 96.577 2.537 96.256 2.482 95.957 2.442 95.677 2.419 95.398 2.402 95.153 2.397 94.941 2.404V2.404C94.239 2.429 93.681 2.597 93.267 2.91 92.86 3.229 92.667 3.676 92.687 4.253V4.253C92.701 4.663 92.815 5.004 93.03 5.275 93.245 5.553 93.526 5.795 93.871 6.002 94.216 6.209 94.611 6.395 95.054 6.558 95.491 6.729 95.938 6.903 96.395 7.079 96.852 7.262 97.3 7.466 97.739 7.689 98.177 7.906 98.575 8.178 98.931 8.504 99.28 8.83 99.565 9.218 99.786 9.668 100.008 10.118 100.129 10.661 100.151 11.296V11.296C100.177 12.045 100.055 12.732 99.784 13.358 99.514 13.991 99.112 14.542 98.578 15.011 98.05 15.48 97.404 15.854 96.637 16.132 95.877 16.404 95.014 16.556 94.047 16.59V16.59C93.689 16.602 93.301 16.596 92.882 16.57 92.457 16.545 92.025 16.5 91.585 16.436 91.138 16.372 90.684 16.281 90.223 16.164 89.768 16.048 89.322 15.9 88.884 15.723V15.723L89.371 13.11 89.586 12.993C90.01 13.178 90.417 13.346 90.807 13.498 91.191 13.658 91.563 13.787 91.925 13.888 92.28 13.995 92.627 14.076 92.967 14.13 93.308 14.185 93.647 14.206 93.984 14.195ZM115.542 15.552L115.241 17.285C114.845 17.513 114.407 17.692 113.927 17.824 113.453 17.958 112.963 18.051 112.456 18.104 111.955 18.159 111.451 18.179 110.942 18.165 110.428 18.143 109.946 18.093 109.495 18.015V18.015C108.398 17.825 107.414 17.466 106.544 16.939 105.673 16.411 104.953 15.755 104.383 14.97 103.814 14.179 103.418 13.276 103.197 12.263 102.976 11.249 102.967 10.158 103.169 8.989V8.989C103.329 8.068 103.593 7.24 103.963 6.503 104.333 5.767 104.779 5.114 105.301 4.546 105.829 3.985 106.419 3.509 107.072 3.117 107.731 2.727 108.423 2.423 109.147 2.205 109.877 1.989 110.632 1.861 111.413 1.821 112.187 1.78 112.962 1.827 113.739 1.962V1.962C113.981 2.004 114.263 2.063 114.586 2.139 114.917 2.21 115.261 2.3 115.619 2.409 115.97 2.517 116.332 2.64 116.705 2.779 117.078 2.917 117.439 3.067 117.788 3.228V3.228L116.786 5.688 116.546 5.737C115.942 5.303 115.349 4.975 114.769 4.753 114.189 4.532 113.667 4.381 113.203 4.301V4.301C112.452 4.17 111.746 4.186 111.086 4.347 110.425 4.515 109.833 4.806 109.311 5.22 108.782 5.633 108.337 6.161 107.977 6.805 107.616 7.449 107.363 8.192 107.217 9.034V9.034C107.07 9.883 107.062 10.686 107.194 11.442 107.318 12.196 107.574 12.873 107.962 13.472 108.349 14.07 108.861 14.572 109.497 14.978 110.14 15.379 110.903 15.656 111.784 15.809V15.809C112.463 15.926 113.11 15.958 113.725 15.903 114.34 15.848 114.945 15.731 115.542 15.552ZM126.597 5.836L121.351 21.062 117.676 19.796 122.922 4.57ZM133.531 27.548L124.563 22.71 132.21 8.537 141.457 13.526 139.944 15.432 134.493 12.491 132.463 16.253 137.223 18.821 135.811 20.601 131.401 18.222 129.121 22.447 135.044 25.643ZM138.061 31.573L135.747 29.522 146.43 17.471 150.38 20.972 148.547 31.104 147.858 33.694 148.021 33.839 149.719 31.744 155.357 25.384 157.663 27.428 146.981 39.479 143.968 36.809 146.189 24.232 146.873 21.782 146.709 21.637 145.117 23.613ZM158.192 50.746L156.728 51.721C156.29 51.59 155.858 51.396 155.432 51.138 155.01 50.886 154.605 50.594 154.217 50.263 153.833 49.937 153.471 49.585 153.132 49.206 152.794 48.818 152.498 48.434 152.245 48.053V48.053C151.628 47.126 151.211 46.165 150.995 45.171 150.779 44.176 150.76 43.202 150.937 42.248 151.12 41.291 151.503 40.383 152.086 39.525 152.67 38.667 153.455 37.909 154.443 37.252V37.252C155.221 36.735 156.004 36.357 156.793 36.118 157.582 35.88 158.362 35.755 159.134 35.742 159.904 35.739 160.656 35.84 161.389 36.045 162.126 36.255 162.823 36.548 163.478 36.923 164.138 37.304 164.751 37.765 165.316 38.304 165.878 38.837 166.378 39.432 166.815 40.089V40.089C166.95 40.293 167.102 40.538 167.269 40.825 167.445 41.114 167.617 41.426 167.784 41.76 167.947 42.089 168.107 42.437 168.263 42.803 168.419 43.169 168.558 43.534 168.681 43.898V43.898L166.207 44.864 166.006 44.723C165.905 43.986 165.736 43.33 165.497 42.756 165.259 42.183 165.009 41.7 164.749 41.308V41.308C164.326 40.674 163.83 40.173 163.258 39.804 162.681 39.44 162.063 39.211 161.403 39.116 160.74 39.017 160.05 39.057 159.335 39.239 158.62 39.42 157.907 39.748 157.195 40.221V40.221C156.478 40.699 155.89 41.245 155.432 41.86 154.97 42.47 154.655 43.121 154.487 43.814 154.319 44.507 154.307 45.224 154.449 45.965 154.601 46.708 154.925 47.451 155.421 48.196V48.196C155.803 48.77 156.225 49.261 156.688 49.67 157.151 50.078 157.652 50.437 158.192 50.746ZM160.18 64.464L156.392 55.004 171.342 49.018 175.248 58.773 172.865 59.266 170.563 53.517 166.595 55.106 168.605 60.126 166.381 60.589 164.518 55.937 160.061 57.722 162.563 63.97ZM24.26 115.664L20.902 105.896 36.339 100.59 39.8 110.659 37.367 111.043 35.325 105.101 31.226 106.51 33.006 111.69 30.734 112.051 29.082 107.247 24.476 108.83 26.696 115.289ZM32.015 128.522L34.642 125.603 31.691 120.906 27.931 122.024 26.181 119.238 42.763 114.946 45.291 118.97 34.226 132.04ZM33.924 120.219L36.23 123.889 39.98 119.748 41.754 117.975 41.638 117.79 39.276 118.628ZM45.567 135.171L44.114 133.7 39.821 137.94 37.055 135.14 48.668 123.669 52.79 127.842C53.535 128.596 54.102 129.335 54.491 130.059 54.88 130.774 55.12 131.455 55.21 132.102 55.299 132.75 55.253 133.349 55.072 133.901 54.89 134.443 54.599 134.913 54.199 135.309V135.309C53.836 135.667 53.424 135.939 52.963 136.123 52.503 136.308 52.029 136.427 51.541 136.48 51.054 136.533 50.566 136.535 50.079 136.485 49.592 136.445 49.138 136.381 48.717 136.294V136.294L46.597 144.801 43.391 141.554ZM49.709 128.174L45.727 132.107 47.704 134.109C47.933 134.18 48.179 134.217 48.441 134.219 48.708 134.225 48.978 134.196 49.25 134.132 49.522 134.059 49.797 133.95 50.074 133.807 50.342 133.663 50.601 133.468 50.851 133.221V133.221C51.125 132.951 51.34 132.655 51.496 132.332 51.648 132.015 51.73 131.687 51.742 131.35 51.748 131.008 51.678 130.663 51.53 130.315 51.382 129.968 51.145 129.629 50.819 129.299V129.299ZM63.791 139.225L56.352 150.965 53.027 148.858 60.465 137.118 56.182 134.405 57.85 132.59 69.413 139.916 67.746 141.731ZM68.386 156.659L64.68 155.333 70.18 139.964 73.886 141.291 71.639 147.571 78.003 149.849 80.251 143.568 83.957 144.895 78.457 160.263 74.751 158.937 77.183 152.142 70.818 149.864ZM93.698 159.57V159.57C94.049 159.582 94.385 159.554 94.706 159.486 95.026 159.424 95.312 159.314 95.563 159.157 95.813 159 96.019 158.799 96.181 158.552 96.335 158.306 96.418 158.007 96.431 157.656V157.656C96.445 157.245 96.355 156.891 96.16 156.592 95.958 156.293 95.689 156.029 95.352 155.798 95.015 155.567 94.631 155.355 94.2 155.161 93.77 154.96 93.329 154.752 92.879 154.538 92.429 154.33 91.99 154.095 91.561 153.835 91.139 153.582 90.762 153.277 90.429 152.92 90.097 152.57 89.833 152.157 89.637 151.679 89.448 151.195 89.365 150.628 89.388 149.979V149.979C89.414 149.231 89.584 148.557 89.896 147.958 90.202 147.365 90.631 146.866 91.182 146.461 91.734 146.056 92.388 145.75 93.144 145.545 93.907 145.346 94.752 145.263 95.679 145.295V145.295C95.931 145.304 96.226 145.321 96.563 145.346 96.9 145.378 97.263 145.424 97.652 145.484 98.035 145.543 98.43 145.617 98.838 145.704 99.24 145.791 99.637 145.898 100.031 146.024V146.024L99.373 148.618 99.161 148.7C98.822 148.535 98.482 148.391 98.142 148.266 97.794 148.148 97.463 148.05 97.147 147.973 96.825 147.888 96.523 147.825 96.239 147.782 95.962 147.746 95.714 147.724 95.495 147.716V147.716C94.787 147.691 94.212 147.824 93.77 148.113 93.336 148.403 93.108 148.839 93.088 149.422V149.422C93.073 149.84 93.164 150.194 93.359 150.486 93.561 150.778 93.83 151.043 94.167 151.28 94.504 151.518 94.887 151.733 95.318 151.927 95.749 152.128 96.189 152.336 96.639 152.55 97.089 152.765 97.529 152.999 97.957 153.253 98.386 153.507 98.767 153.809 99.1 154.158 99.432 154.515 99.696 154.929 99.892 155.4 100.081 155.871 100.164 156.43 100.141 157.08V157.08C100.115 157.835 99.942 158.522 99.622 159.14 99.302 159.752 98.859 160.277 98.293 160.715 97.721 161.153 97.04 161.484 96.249 161.708 95.459 161.932 94.574 162.027 93.593 161.993V161.993C93.229 161.98 92.836 161.947 92.413 161.892 91.991 161.838 91.559 161.763 91.118 161.668 90.671 161.566 90.217 161.441 89.758 161.292 89.306 161.144 88.868 160.966 88.444 160.759V160.759L89.112 158.146 89.335 158.044C89.752 158.258 90.153 158.458 90.537 158.644 90.915 158.829 91.281 158.988 91.635 159.12 91.995 159.252 92.343 159.357 92.678 159.435 93.02 159.513 93.36 159.558 93.698 159.57ZM116.488 155.987L116.792 157.751C116.49 158.105 116.135 158.425 115.727 158.711 115.314 159.004 114.877 159.261 114.418 159.482 113.951 159.704 113.473 159.894 112.983 160.052 112.491 160.204 112.013 160.32 111.55 160.4V160.4C110.439 160.592 109.379 160.587 108.369 160.384 107.358 160.176 106.448 159.791 105.638 159.231 104.822 158.673 104.135 157.947 103.578 157.055 103.027 156.161 102.649 155.124 102.445 153.942V153.942C102.284 153.008 102.253 152.125 102.352 151.294 102.451 150.464 102.656 149.688 102.969 148.969 103.277 148.256 103.678 147.602 104.174 147.005 104.662 146.403 105.22 145.877 105.848 145.425 106.469 144.968 107.143 144.59 107.872 144.289 108.6 143.989 109.356 143.771 110.14 143.635V143.635C110.388 143.593 110.679 143.549 111.015 143.505 111.351 143.467 111.706 143.439 112.08 143.422 112.46 143.403 112.849 143.397 113.247 143.402 113.651 143.406 114.048 143.428 114.439 143.469V143.469L114.317 146.153 114.107 146.28C113.379 146.076 112.7 145.964 112.072 145.945 111.444 145.932 110.895 145.967 110.425 146.048V146.048C109.667 146.178 109.002 146.435 108.429 146.816 107.849 147.198 107.38 147.676 107.022 148.249 106.663 148.822 106.42 149.479 106.293 150.221 106.17 150.955 106.183 151.746 106.329 152.595V152.595C106.479 153.464 106.74 154.236 107.112 154.912 107.491 155.586 107.967 156.146 108.542 156.592 109.115 157.031 109.776 157.334 110.525 157.5 111.273 157.667 112.095 157.673 112.989 157.519V157.519C113.675 157.401 114.302 157.212 114.869 156.953 115.441 156.686 115.981 156.364 116.488 155.987ZM119.823 141.042L125.117 156.482 121.394 157.759 116.099 142.318ZM139.039 149.248L129.939 154.133 122.219 139.75 131.6 134.715 132.371 137.055 126.835 140.026 128.885 143.845 133.711 141.255 134.432 143.44 129.957 145.842 132.26 150.134 138.278 146.904ZM145.689 143.749L143.342 145.821 132.539 133.585 136.548 130.045 146.511 133.144 149.033 134.153 149.197 134.008 147.298 132.038 141.601 125.584 143.948 123.512 154.751 135.749 151.681 138.459 139.31 134.661 136.928 133.675 136.756 133.826 138.551 135.663ZM162.522 118.569L164.01 119.563C164.059 120.026 164.047 120.504 163.973 120.997 163.901 121.498 163.787 121.992 163.63 122.477 163.47 122.968 163.279 123.445 163.056 123.91 162.828 124.372 162.583 124.798 162.322 125.189V125.189C161.696 126.126 160.962 126.891 160.12 127.484 159.272 128.074 158.366 128.469 157.403 128.671 156.436 128.878 155.437 128.876 154.406 128.666 153.379 128.45 152.366 128.009 151.369 127.343V127.343C150.58 126.817 149.919 126.232 149.385 125.588 148.85 124.944 148.43 124.261 148.123 123.539 147.819 122.825 147.621 122.084 147.529 121.313 147.429 120.545 147.431 119.778 147.537 119.011 147.633 118.247 147.822 117.497 148.106 116.762 148.39 116.027 148.752 115.328 149.194 114.667V114.667C149.334 114.458 149.503 114.216 149.702 113.942 149.906 113.672 150.13 113.396 150.375 113.113 150.623 112.824 150.886 112.538 151.164 112.253 151.446 111.963 151.735 111.69 152.033 111.435V111.435L153.896 113.372 153.843 113.611C153.194 113.999 152.646 114.414 152.199 114.857 151.758 115.303 151.404 115.725 151.139 116.121V116.121C150.712 116.761 150.44 117.42 150.322 118.098 150.2 118.781 150.224 119.45 150.392 120.105 150.561 120.759 150.87 121.388 151.32 121.991 151.768 122.586 152.35 123.122 153.067 123.6V123.6C153.8 124.09 154.54 124.432 155.286 124.627 156.036 124.817 156.77 124.857 157.489 124.747 158.202 124.634 158.877 124.363 159.513 123.935 160.149 123.508 160.719 122.916 161.224 122.161V122.161C161.61 121.582 161.904 120.998 162.107 120.408 162.308 119.809 162.446 119.196 162.522 118.569ZM171.063 106.359L167.208 115.942 152.064 109.849 156.038 99.972 158.129 101.274 155.784 107.102 159.805 108.72 161.85 103.638 163.804 104.853 161.908 109.566 166.427 111.384 168.976 105.048ZM17.221 83.214C17.221 79.77 20.013 76.979 23.457 76.979 26.901 76.979 29.692 79.77 29.692 83.214 29.692 86.658 26.901 89.449 23.457 89.449 20.013 89.449 17.221 86.658 17.221 83.214ZM162.165 83.214C162.165 79.77 164.956 76.979 168.4 76.979 171.844 76.979 174.636 79.77 174.636 83.214 174.636 86.658 171.844 89.449 168.4 89.449 164.956 89.449 162.165 86.658 162.165 83.214Z" fill="#0080ff" data-fill-palette-color="primary"></path></svg></g></svg></g></svg></g></svg></g></svg></g></svg></g><defs></defs></svg><rect width="320" height="360" fill="none" stroke="none" visibility="hidden"></rect></g></svg></g></svg>